<svg xmlns="http://www.w3.org/2000/svg" width="87.686" height="207.875" viewBox="0 0 87.686 207.875">
  <g id="Group_7282" data-name="Group 7282" transform="translate(30.836 -153.679) rotate(90)">
    <g id="Group_7268" data-name="Group 7268">
      <path id="Path_12027" data-name="Path 12027" d="M155.523,9.89a1.844,1.844,0,1,1-1.844,1.844A1.844,1.844,0,0,1,155.523,9.89Z" fill="#00ba93"/>
      <path id="Path_12028" data-name="Path 12028" d="M155.524-23.1a1.844,1.844,0,0,1,1.844,1.844,1.845,1.845,0,0,1-1.845,1.844,1.845,1.845,0,0,1-1.844-1.844A1.844,1.844,0,0,1,155.524-23.1Z" fill="#00ba93"/>
      <path id="Path_12029" data-name="Path 12029" d="M155.524-56.086a1.844,1.844,0,0,1,1.844,1.844,1.845,1.845,0,0,1-1.845,1.844,1.845,1.845,0,0,1-1.844-1.844A1.844,1.844,0,0,1,155.524-56.086Z" fill="#00ba93"/>
      <path id="Path_12030" data-name="Path 12030" d="M155.523,26.384a1.844,1.844,0,1,1-1.844,1.844A1.844,1.844,0,0,1,155.523,26.384Z" fill="#00ba93"/>
      <path id="Path_12031" data-name="Path 12031" d="M155.524-6.605a1.845,1.845,0,0,1,1.844,1.845,1.845,1.845,0,0,1-1.845,1.844,1.845,1.845,0,0,1-1.844-1.844A1.846,1.846,0,0,1,155.524-6.605Z" fill="#00ba93"/>
      <path id="Path_12032" data-name="Path 12032" d="M155.524-39.592a1.844,1.844,0,0,1,1.844,1.844,1.845,1.845,0,0,1-1.845,1.844,1.845,1.845,0,0,1-1.844-1.844A1.844,1.844,0,0,1,155.524-39.592Z" fill="#00ba93"/>
    </g>
    <g id="Group_7269" data-name="Group 7269">
      <circle id="Ellipse_305" data-name="Ellipse 305" cx="1.844" cy="1.844" r="1.844" transform="translate(169.327 9.889)" fill="#00ba93"/>
      <path id="Path_12033" data-name="Path 12033" d="M171.171-23.1a1.844,1.844,0,0,1,1.845,1.844,1.845,1.845,0,0,1-1.845,1.844,1.845,1.845,0,0,1-1.844-1.844A1.844,1.844,0,0,1,171.171-23.1Z" fill="#00ba93"/>
      <path id="Path_12034" data-name="Path 12034" d="M171.171-56.086a1.844,1.844,0,0,1,1.845,1.844,1.845,1.845,0,0,1-1.845,1.844,1.845,1.845,0,0,1-1.844-1.844A1.844,1.844,0,0,1,171.171-56.086Z" fill="#00ba93"/>
      <path id="Path_12035" data-name="Path 12035" d="M171.172,26.384a1.844,1.844,0,1,1-1.845,1.844A1.844,1.844,0,0,1,171.172,26.384Z" fill="#00ba93"/>
      <path id="Path_12036" data-name="Path 12036" d="M171.171-6.605a1.845,1.845,0,0,1,1.845,1.845,1.845,1.845,0,0,1-1.845,1.844,1.845,1.845,0,0,1-1.844-1.844A1.845,1.845,0,0,1,171.171-6.605Z" fill="#00ba93"/>
      <path id="Path_12037" data-name="Path 12037" d="M171.171-39.592a1.844,1.844,0,0,1,1.845,1.844,1.845,1.845,0,0,1-1.845,1.844,1.845,1.845,0,0,1-1.844-1.844A1.844,1.844,0,0,1,171.171-39.592Z" fill="#00ba93"/>
    </g>
    <g id="Group_7270" data-name="Group 7270">
      <path id="Path_12038" data-name="Path 12038" d="M186.819,9.89a1.844,1.844,0,1,1-1.844,1.844A1.844,1.844,0,0,1,186.819,9.89Z" fill="#00ba93"/>
      <path id="Path_12039" data-name="Path 12039" d="M186.819-23.1a1.844,1.844,0,0,1,1.845,1.844,1.845,1.845,0,0,1-1.845,1.844,1.845,1.845,0,0,1-1.844-1.844A1.844,1.844,0,0,1,186.819-23.1Z" fill="#00ba93"/>
      <circle id="Ellipse_306" data-name="Ellipse 306" cx="1.844" cy="1.844" r="1.844" transform="translate(184.211 -54.242) rotate(-45)" fill="#00ba93"/>
      <circle id="Ellipse_307" data-name="Ellipse 307" cx="1.844" cy="1.844" r="1.844" transform="translate(184.211 28.228) rotate(-45)" fill="#00ba93"/>
      <path id="Path_12040" data-name="Path 12040" d="M186.819-6.6a1.844,1.844,0,0,1,1.845,1.844,1.845,1.845,0,0,1-1.845,1.844,1.845,1.845,0,0,1-1.844-1.844A1.844,1.844,0,0,1,186.819-6.6Z" fill="#00ba93"/>
      <path id="Path_12041" data-name="Path 12041" d="M186.819-39.592a1.844,1.844,0,0,1,1.845,1.844,1.845,1.845,0,0,1-1.845,1.844,1.845,1.845,0,0,1-1.844-1.844A1.844,1.844,0,0,1,186.819-39.592Z" fill="#00ba93"/>
    </g>
    <g id="Group_7271" data-name="Group 7271">
      <path id="Path_12042" data-name="Path 12042" d="M202.467,9.89a1.844,1.844,0,1,1-1.844,1.844A1.843,1.843,0,0,1,202.467,9.89Z" fill="#00ba93"/>
      <path id="Path_12043" data-name="Path 12043" d="M202.467-23.1a1.843,1.843,0,0,1,1.844,1.844,1.844,1.844,0,0,1-1.844,1.844,1.845,1.845,0,0,1-1.844-1.844A1.844,1.844,0,0,1,202.467-23.1Z" fill="#00ba93"/>
      <path id="Path_12044" data-name="Path 12044" d="M202.467-56.086a1.843,1.843,0,0,1,1.844,1.844,1.844,1.844,0,0,1-1.844,1.844,1.845,1.845,0,0,1-1.844-1.844A1.844,1.844,0,0,1,202.467-56.086Z" fill="#00ba93"/>
      <path id="Path_12045" data-name="Path 12045" d="M202.467,26.384a1.844,1.844,0,1,1-1.844,1.844A1.843,1.843,0,0,1,202.467,26.384Z" fill="#00ba93"/>
      <path id="Path_12046" data-name="Path 12046" d="M202.467-6.6a1.843,1.843,0,0,1,1.844,1.844,1.844,1.844,0,0,1-1.844,1.844,1.845,1.845,0,0,1-1.844-1.844A1.844,1.844,0,0,1,202.467-6.6Z" fill="#00ba93"/>
      <path id="Path_12047" data-name="Path 12047" d="M202.467-39.592a1.843,1.843,0,0,1,1.844,1.844,1.844,1.844,0,0,1-1.844,1.844,1.845,1.845,0,0,1-1.844-1.844A1.844,1.844,0,0,1,202.467-39.592Z" fill="#00ba93"/>
    </g>
    <g id="Group_7272" data-name="Group 7272">
      <path id="Path_12048" data-name="Path 12048" d="M218.115,9.89a1.844,1.844,0,1,1-1.844,1.844A1.843,1.843,0,0,1,218.115,9.89Z" fill="#00ba93"/>
      <path id="Path_12049" data-name="Path 12049" d="M218.115-23.1a1.843,1.843,0,0,1,1.844,1.844,1.844,1.844,0,0,1-1.844,1.844,1.844,1.844,0,0,1-1.844-1.844A1.844,1.844,0,0,1,218.115-23.1Z" fill="#00ba93"/>
      <circle id="Ellipse_308" data-name="Ellipse 308" cx="1.844" cy="1.844" r="1.844" transform="translate(215.507 -54.242) rotate(-45)" fill="#00ba93"/>
      <path id="Path_12050" data-name="Path 12050" d="M218.115,26.384a1.844,1.844,0,1,1-1.844,1.844A1.843,1.843,0,0,1,218.115,26.384Z" fill="#00ba93"/>
      <path id="Path_12051" data-name="Path 12051" d="M218.115-6.6a1.843,1.843,0,0,1,1.844,1.844,1.844,1.844,0,0,1-1.844,1.844,1.844,1.844,0,0,1-1.844-1.844A1.843,1.843,0,0,1,218.115-6.6Z" fill="#00ba93"/>
      <path id="Path_12052" data-name="Path 12052" d="M218.115-39.592a1.843,1.843,0,0,1,1.844,1.844,1.844,1.844,0,0,1-1.844,1.844,1.844,1.844,0,0,1-1.844-1.844A1.843,1.843,0,0,1,218.115-39.592Z" fill="#00ba93"/>
    </g>
    <g id="Group_7273" data-name="Group 7273">
      <path id="Path_12053" data-name="Path 12053" d="M233.763,9.89a1.844,1.844,0,1,1-1.844,1.844A1.844,1.844,0,0,1,233.763,9.89Z" fill="#00ba93"/>
      <path id="Path_12054" data-name="Path 12054" d="M233.763-23.1a1.843,1.843,0,0,1,1.844,1.844,1.845,1.845,0,0,1-1.844,1.844,1.844,1.844,0,0,1-1.844-1.844A1.843,1.843,0,0,1,233.763-23.1Z" fill="#00ba93"/>
      <path id="Path_12055" data-name="Path 12055" d="M233.763-56.086a1.843,1.843,0,0,1,1.844,1.844,1.845,1.845,0,0,1-1.844,1.844,1.844,1.844,0,0,1-1.844-1.844A1.843,1.843,0,0,1,233.763-56.086Z" fill="#00ba93"/>
      <circle id="Ellipse_309" data-name="Ellipse 309" cx="1.844" cy="1.844" r="1.844" transform="translate(231.155 28.189) rotate(-44.156)" fill="#00ba93"/>
      <circle id="Ellipse_310" data-name="Ellipse 310" cx="1.844" cy="1.844" r="1.844" transform="translate(231.919 -6.604)" fill="#00ba93"/>
      <path id="Path_12056" data-name="Path 12056" d="M233.763-39.592a1.843,1.843,0,0,1,1.844,1.844,1.845,1.845,0,0,1-1.844,1.844,1.844,1.844,0,0,1-1.844-1.844A1.843,1.843,0,0,1,233.763-39.592Z" fill="#00ba93"/>
    </g>
    <g id="Group_7274" data-name="Group 7274">
      <circle id="Ellipse_311" data-name="Ellipse 311" cx="1.844" cy="1.844" r="1.844" transform="translate(247.567 9.889)" fill="#00ba93"/>
      <path id="Path_12057" data-name="Path 12057" d="M249.411-23.1a1.844,1.844,0,0,1,1.844,1.844,1.845,1.845,0,0,1-1.844,1.844,1.844,1.844,0,0,1-1.844-1.844A1.843,1.843,0,0,1,249.411-23.1Z" fill="#00ba93"/>
      <path id="Path_12058" data-name="Path 12058" d="M249.411-56.086a1.844,1.844,0,0,1,1.844,1.844,1.845,1.845,0,0,1-1.844,1.844,1.844,1.844,0,0,1-1.844-1.844A1.843,1.843,0,0,1,249.411-56.086Z" fill="#00ba93"/>
      <path id="Path_12059" data-name="Path 12059" d="M249.411,26.384a1.844,1.844,0,1,1-1.844,1.844A1.844,1.844,0,0,1,249.411,26.384Z" fill="#00ba93"/>
      <circle id="Ellipse_312" data-name="Ellipse 312" cx="1.844" cy="1.844" r="1.844" transform="translate(247.567 -6.604)" fill="#00ba93"/>
      <path id="Path_12060" data-name="Path 12060" d="M249.411-39.592a1.844,1.844,0,0,1,1.844,1.844,1.845,1.845,0,0,1-1.844,1.844,1.844,1.844,0,0,1-1.844-1.844A1.843,1.843,0,0,1,249.411-39.592Z" fill="#00ba93"/>
    </g>
    <g id="Group_7275" data-name="Group 7275">
      <path id="Path_12061" data-name="Path 12061" d="M265.059,9.89a1.844,1.844,0,1,1-1.845,1.844A1.844,1.844,0,0,1,265.059,9.89Z" fill="#00ba93"/>
      <path id="Path_12062" data-name="Path 12062" d="M265.059-23.1a1.844,1.844,0,0,1,1.844,1.844,1.845,1.845,0,0,1-1.844,1.844,1.845,1.845,0,0,1-1.845-1.844A1.844,1.844,0,0,1,265.059-23.1Z" fill="#00ba93"/>
      <path id="Path_12063" data-name="Path 12063" d="M265.059-56.086a1.844,1.844,0,0,1,1.844,1.844,1.845,1.845,0,0,1-1.844,1.844,1.845,1.845,0,0,1-1.845-1.844A1.844,1.844,0,0,1,265.059-56.086Z" fill="#00ba93"/>
      <path id="Path_12064" data-name="Path 12064" d="M265.059,26.384a1.844,1.844,0,1,1-1.845,1.844A1.844,1.844,0,0,1,265.059,26.384Z" fill="#00ba93"/>
      <path id="Path_12065" data-name="Path 12065" d="M265.059-6.605A1.845,1.845,0,0,1,266.9-4.76a1.845,1.845,0,0,1-1.844,1.844,1.845,1.845,0,0,1-1.845-1.844A1.845,1.845,0,0,1,265.059-6.605Z" fill="#00ba93"/>
      <path id="Path_12066" data-name="Path 12066" d="M265.059-39.592a1.844,1.844,0,0,1,1.844,1.844,1.845,1.845,0,0,1-1.844,1.844,1.845,1.845,0,0,1-1.845-1.844A1.844,1.844,0,0,1,265.059-39.592Z" fill="#00ba93"/>
    </g>
    <g id="Group_7276" data-name="Group 7276">
      <path id="Path_12067" data-name="Path 12067" d="M280.707,9.89a1.844,1.844,0,1,1-1.845,1.844A1.844,1.844,0,0,1,280.707,9.89Z" fill="#00ba93"/>
      <path id="Path_12068" data-name="Path 12068" d="M280.707-23.1a1.844,1.844,0,0,1,1.844,1.844,1.845,1.845,0,0,1-1.844,1.844,1.845,1.845,0,0,1-1.845-1.844A1.844,1.844,0,0,1,280.707-23.1Z" fill="#00ba93"/>
      <path id="Path_12069" data-name="Path 12069" d="M280.707-56.086a1.844,1.844,0,0,1,1.844,1.844,1.845,1.845,0,0,1-1.844,1.844,1.845,1.845,0,0,1-1.845-1.844A1.844,1.844,0,0,1,280.707-56.086Z" fill="#00ba93"/>
      <path id="Path_12070" data-name="Path 12070" d="M280.707,26.384a1.844,1.844,0,1,1-1.845,1.844A1.844,1.844,0,0,1,280.707,26.384Z" fill="#00ba93"/>
      <path id="Path_12071" data-name="Path 12071" d="M280.707-6.6a1.844,1.844,0,0,1,1.844,1.844,1.845,1.845,0,0,1-1.844,1.844,1.845,1.845,0,0,1-1.845-1.844A1.844,1.844,0,0,1,280.707-6.6Z" fill="#00ba93"/>
      <path id="Path_12072" data-name="Path 12072" d="M280.706-39.592a1.844,1.844,0,0,1,1.845,1.844,1.845,1.845,0,0,1-1.844,1.844,1.845,1.845,0,0,1-1.845-1.844A1.844,1.844,0,0,1,280.706-39.592Z" fill="#00ba93"/>
    </g>
    <g id="Group_7277" data-name="Group 7277">
      <circle id="Ellipse_313" data-name="Ellipse 313" cx="1.844" cy="1.844" r="1.844" transform="translate(294.51 9.89)" fill="#00ba93"/>
      <path id="Path_12073" data-name="Path 12073" d="M296.355-23.1a1.844,1.844,0,0,1,1.844,1.844,1.845,1.845,0,0,1-1.845,1.844,1.845,1.845,0,0,1-1.844-1.844A1.844,1.844,0,0,1,296.355-23.1Z" fill="#00ba93"/>
      <path id="Path_12074" data-name="Path 12074" d="M296.355-56.086a1.844,1.844,0,0,1,1.844,1.844,1.845,1.845,0,0,1-1.844,1.844,1.845,1.845,0,0,1-1.845-1.844A1.844,1.844,0,0,1,296.355-56.086Z" fill="#00ba93"/>
      <circle id="Ellipse_314" data-name="Ellipse 314" cx="1.844" cy="1.844" r="1.844" transform="translate(293.747 28.228) rotate(-45)" fill="#00ba93"/>
      <path id="Path_12075" data-name="Path 12075" d="M296.354-6.6A1.844,1.844,0,0,1,298.2-4.76a1.845,1.845,0,0,1-1.845,1.844A1.845,1.845,0,0,1,294.51-4.76,1.844,1.844,0,0,1,296.354-6.6Z" fill="#00ba93"/>
      <path id="Path_12076" data-name="Path 12076" d="M296.355-39.592a1.844,1.844,0,0,1,1.844,1.844,1.845,1.845,0,0,1-1.844,1.844,1.845,1.845,0,0,1-1.845-1.844A1.844,1.844,0,0,1,296.355-39.592Z" fill="#00ba93"/>
    </g>
    <g id="Group_7278" data-name="Group 7278">
      <path id="Path_12077" data-name="Path 12077" d="M312,9.89a1.844,1.844,0,1,1-1.844,1.844A1.843,1.843,0,0,1,312,9.89Z" fill="#00ba93"/>
      <circle id="Ellipse_315" data-name="Ellipse 315" cx="1.844" cy="1.844" r="1.844" transform="translate(310.158 -23.098)" fill="#00ba93"/>
      <path id="Path_12078" data-name="Path 12078" d="M312-56.086a1.844,1.844,0,0,1,1.845,1.844A1.845,1.845,0,0,1,312-52.4a1.845,1.845,0,0,1-1.844-1.844A1.844,1.844,0,0,1,312-56.086Z" fill="#00ba93"/>
      <path id="Path_12079" data-name="Path 12079" d="M312,26.384a1.844,1.844,0,1,1-1.844,1.844A1.845,1.845,0,0,1,312,26.384Z" fill="#00ba93"/>
      <path id="Path_12080" data-name="Path 12080" d="M312-6.6a1.843,1.843,0,0,1,1.844,1.844A1.844,1.844,0,0,1,312-2.916a1.845,1.845,0,0,1-1.844-1.844A1.844,1.844,0,0,1,312-6.6Z" fill="#00ba93"/>
      <path id="Path_12081" data-name="Path 12081" d="M312-39.592a1.844,1.844,0,0,1,1.845,1.844A1.845,1.845,0,0,1,312-35.9a1.845,1.845,0,0,1-1.844-1.844A1.844,1.844,0,0,1,312-39.592Z" fill="#00ba93"/>
    </g>
    <g id="Group_7279" data-name="Group 7279">
      <circle id="Ellipse_316" data-name="Ellipse 316" cx="1.844" cy="1.844" r="1.844" transform="translate(325.043 11.681) rotate(-43.846)" fill="#00ba93"/>
      <path id="Path_12082" data-name="Path 12082" d="M327.65-23.1a1.843,1.843,0,0,1,1.844,1.844,1.844,1.844,0,0,1-1.844,1.844,1.845,1.845,0,0,1-1.844-1.844A1.844,1.844,0,0,1,327.65-23.1Z" fill="#00ba93"/>
      <path id="Path_12083" data-name="Path 12083" d="M327.65-56.086a1.843,1.843,0,0,1,1.844,1.844A1.844,1.844,0,0,1,327.65-52.4a1.845,1.845,0,0,1-1.844-1.844A1.844,1.844,0,0,1,327.65-56.086Z" fill="#00ba93"/>
      <circle id="Ellipse_317" data-name="Ellipse 317" cx="1.844" cy="1.844" r="1.844" transform="translate(325.043 28.175) rotate(-43.846)" fill="#00ba93"/>
      <path id="Path_12084" data-name="Path 12084" d="M327.65-6.605a1.844,1.844,0,0,1,1.844,1.845,1.843,1.843,0,0,1-1.844,1.844,1.845,1.845,0,0,1-1.844-1.844A1.845,1.845,0,0,1,327.65-6.605Z" fill="#00ba93"/>
      <path id="Path_12085" data-name="Path 12085" d="M327.65-39.592a1.843,1.843,0,0,1,1.844,1.844A1.844,1.844,0,0,1,327.65-35.9a1.845,1.845,0,0,1-1.844-1.844A1.844,1.844,0,0,1,327.65-39.592Z" fill="#00ba93"/>
    </g>
    <g id="Group_7280" data-name="Group 7280">
      <path id="Path_12086" data-name="Path 12086" d="M343.3,9.889a1.845,1.845,0,1,1-1.844,1.845A1.844,1.844,0,0,1,343.3,9.889Z" fill="#00ba93"/>
      <path id="Path_12087" data-name="Path 12087" d="M343.3-23.1a1.843,1.843,0,0,1,1.844,1.844A1.844,1.844,0,0,1,343.3-19.41a1.845,1.845,0,0,1-1.844-1.844A1.844,1.844,0,0,1,343.3-23.1Z" fill="#00ba93"/>
      <path id="Path_12088" data-name="Path 12088" d="M343.3-56.086a1.843,1.843,0,0,1,1.844,1.844A1.844,1.844,0,0,1,343.3-52.4a1.845,1.845,0,0,1-1.844-1.844A1.844,1.844,0,0,1,343.3-56.086Z" fill="#00ba93"/>
      <circle id="Ellipse_318" data-name="Ellipse 318" cx="1.844" cy="1.844" r="1.844" transform="matrix(0.691, -0.723, 0.723, 0.691, 340.691, 28.288)" fill="#00ba93"/>
      <circle id="Ellipse_319" data-name="Ellipse 319" cx="1.844" cy="1.844" r="1.844" transform="translate(341.454 -6.604)" fill="#00ba93"/>
      <path id="Path_12089" data-name="Path 12089" d="M343.3-39.592a1.843,1.843,0,0,1,1.844,1.844A1.844,1.844,0,0,1,343.3-35.9a1.845,1.845,0,0,1-1.844-1.844A1.844,1.844,0,0,1,343.3-39.592Z" fill="#00ba93"/>
    </g>
    <g id="Group_7281" data-name="Group 7281">
      <path id="Path_12090" data-name="Path 12090" d="M358.946,9.89a1.844,1.844,0,1,1-1.844,1.844A1.843,1.843,0,0,1,358.946,9.89Z" fill="#00ba93"/>
      <path id="Path_12091" data-name="Path 12091" d="M358.946-23.1a1.843,1.843,0,0,1,1.844,1.844,1.844,1.844,0,0,1-1.844,1.844,1.845,1.845,0,0,1-1.844-1.844A1.843,1.843,0,0,1,358.946-23.1Z" fill="#00ba93"/>
      <path id="Path_12092" data-name="Path 12092" d="M358.946-56.086a1.843,1.843,0,0,1,1.844,1.844,1.844,1.844,0,0,1-1.844,1.844,1.845,1.845,0,0,1-1.844-1.844A1.843,1.843,0,0,1,358.946-56.086Z" fill="#00ba93"/>
      <circle id="Ellipse_320" data-name="Ellipse 320" cx="1.844" cy="1.844" r="1.844" transform="matrix(0.699, -0.715, 0.715, 0.699, 356.338, 28.259)" fill="#00ba93"/>
      <path id="Path_12093" data-name="Path 12093" d="M358.946-6.6A1.843,1.843,0,0,1,360.79-4.76a1.844,1.844,0,0,1-1.844,1.844A1.845,1.845,0,0,1,357.1-4.76,1.844,1.844,0,0,1,358.946-6.6Z" fill="#00ba93"/>
      <path id="Path_12094" data-name="Path 12094" d="M358.946-39.592a1.843,1.843,0,0,1,1.844,1.844,1.844,1.844,0,0,1-1.844,1.844,1.845,1.845,0,0,1-1.844-1.844A1.843,1.843,0,0,1,358.946-39.592Z" fill="#00ba93"/>
    </g>
  </g>
</svg>
